<svg xmlns="http://www.w3.org/2000/svg" viewBox="0 0 1024 1024">
  <defs>
    <linearGradient id="bg" x1="0" y1="0" x2="1" y2="1">
      <stop offset="0" stop-color="#5ab8ff"/>
      <stop offset="0.5" stop-color="#7d7cff"/>
      <stop offset="1" stop-color="#c48aff"/>
    </linearGradient>
    <linearGradient id="sand" x1="0" y1="0" x2="0" y2="1">
      <stop offset="0" stop-color="#ffe28a"/>
      <stop offset="1" stop-color="#f6ad63"/>
    </linearGradient>
  </defs>
  <rect width="1024" height="1024" rx="220" fill="url(#bg)"/>
  <circle cx="790" cy="210" r="175" fill="#fff" opacity=".10"/>
  <circle cx="220" cy="820" r="150" fill="#fff" opacity=".08"/>
  <rect x="278" y="210" width="468" height="92" rx="46" fill="#fff"/>
  <rect x="278" y="722" width="468" height="92" rx="46" fill="#fff"/>
  <path d="M350 300h324c-8 109-57 174-126 215 69 43 118 108 126 207H350c8-99 57-164 126-207-69-41-118-106-126-215Z" fill="#f7fbff" stroke="#5149b3" stroke-width="22" stroke-linejoin="round"/>
  <path d="M424 354h176c-12 59-43 93-88 118-45-25-76-59-88-118Z" fill="url(#sand)"/>
  <path d="M512 475c-17 46-18 82-2 119" fill="none" stroke="#f3b35f" stroke-width="22" stroke-linecap="round"/>
  <path d="M395 674c37-72 87-107 117-107s80 35 117 107H395Z" fill="url(#sand)"/>
  <circle cx="460" cy="530" r="18" fill="#4d4596"/>
  <circle cx="564" cy="530" r="18" fill="#4d4596"/>
  <path d="M474 575c24 20 52 20 76 0" fill="none" stroke="#4d4596" stroke-width="16" stroke-linecap="round"/>
  <path d="M184 286l12 34 34 12-34 12-12 34-12-34-34-12 34-12 12-34Z" fill="#fff" opacity=".9"/>
</svg>
